<?xml version="1.0" encoding="utf-8"?><svg viewBox="0 0 24 24" xmlns="http://www.w3.org/2000/svg" xmlns:xlink="http://www.w3.org/1999/xlink"><style>:root>svg{display:none}:root>svg:target{display:block}</style><svg viewBox="0 0 24 24" id="arrow-down-fill" xmlns="http://www.w3.org/2000/svg"><path d="M13 12h7l-8 8-8-8h7V4h2v8z"/></svg><svg viewBox="0 0 24 24" id="arrow-right-fill" xmlns="http://www.w3.org/2000/svg"><path d="M12 13H4v-2h8V4l8 8-8 8v-7z"/></svg><svg viewBox="0 0 24 24" id="github-fill" xmlns="http://www.w3.org/2000/svg"><path d="M12.001 2c-5.525 0-10 4.475-10 10a9.994 9.994 0 006.837 9.488c.5.087.688-.213.688-.476 0-.237-.013-1.024-.013-1.862-2.512.463-3.162-.612-3.362-1.175-.113-.288-.6-1.175-1.025-1.413-.35-.187-.85-.65-.013-.662.788-.013 1.35.725 1.538 1.025.9 1.512 2.337 1.087 2.912.825.088-.65.35-1.087.638-1.337-2.225-.25-4.55-1.113-4.55-4.938 0-1.088.387-1.987 1.025-2.688-.1-.25-.45-1.275.1-2.65 0 0 .837-.262 2.75 1.026a9.28 9.28 0 012.5-.338c.85 0 1.7.112 2.5.337 1.913-1.3 2.75-1.024 2.75-1.024.55 1.375.2 2.4.1 2.65.637.7 1.025 1.587 1.025 2.687 0 3.838-2.337 4.688-4.563 4.938.363.312.676.912.676 1.85 0 1.337-.013 2.412-.013 2.75 0 .262.188.574.688.474A10.016 10.016 0 0022 12c0-5.525-4.475-10-10-10z"/></svg><svg viewBox="0 0 24 24" id="google-fill" xmlns="http://www.w3.org/2000/svg"><path d="M3.064 7.51A9.996 9.996 0 0112 2c2.695 0 4.959.991 6.69 2.605l-2.867 2.868C14.786 6.482 13.468 5.977 12 5.977c-2.605 0-4.81 1.76-5.595 4.123-.2.6-.314 1.24-.314 1.9 0 .66.114 1.3.314 1.9.786 2.364 2.99 4.123 5.595 4.123 1.345 0 2.49-.355 3.386-.955a4.6 4.6 0 001.996-3.018H12v-3.868h9.418c.118.654.182 1.336.182 2.045 0 3.046-1.09 5.61-2.982 7.35C16.964 21.105 14.7 22 12 22A9.996 9.996 0 012 12c0-1.614.386-3.14 1.064-4.49z"/></svg><svg viewBox="0 0 24 24" id="instagram-fill" xmlns="http://www.w3.org/2000/svg"><path d="M13.028 2.001a78.82 78.82 0 012.189.022l.194.007c.224.008.445.018.712.03 1.064.05 1.79.218 2.427.465.66.254 1.216.598 1.772 1.154a4.908 4.908 0 011.153 1.771c.247.637.415 1.364.465 2.428.012.266.022.488.03.712l.006.194a79 79 0 01.023 2.188l.001.746v1.31a78.836 78.836 0 01-.023 2.189l-.006.194c-.008.224-.018.445-.03.712-.05 1.064-.22 1.79-.466 2.427a4.884 4.884 0 01-1.153 1.772 4.915 4.915 0 01-1.772 1.153c-.637.247-1.363.415-2.427.465-.267.012-.488.022-.712.03l-.194.006a79 79 0 01-2.189.023l-.746.001h-1.309a78.836 78.836 0 01-2.189-.023l-.194-.006a60.64 60.64 0 01-.712-.03c-1.064-.05-1.79-.22-2.428-.466a4.89 4.89 0 01-1.771-1.153 4.904 4.904 0 01-1.154-1.772c-.247-.637-.415-1.363-.465-2.427a74.367 74.367 0 01-.03-.712l-.005-.194A79.053 79.053 0 012 13.028v-2.056a78.82 78.82 0 01.022-2.188l.007-.194c.008-.224.018-.446.03-.712.05-1.065.218-1.79.465-2.428A4.88 4.88 0 013.68 3.68a4.897 4.897 0 011.77-1.155c.638-.247 1.363-.415 2.428-.465l.712-.03.194-.005A79.053 79.053 0 0110.972 2h2.056zm-1.028 5A5 5 0 1012 17a5 5 0 000-10zm0 2A3 3 0 1112.001 15a3 3 0 010-6zm5.25-3.5a1.25 1.25 0 000 2.498 1.25 1.25 0 000-2.5z"/></svg><svg viewBox="0 0 24 24" id="menu-fill" xmlns="http://www.w3.org/2000/svg"><path d="M3 4h18v2H3V4zm6 7h12v2H9v-2zm-6 7h18v2H3v-2z"/></svg><svg viewBox="0 0 24 24" id="skype-fill" xmlns="http://www.w3.org/2000/svg"><path d="M13.31 20.4a8.5 8.5 0 01-9.71-9.71 5.25 5.25 0 017.09-7.09 8.5 8.5 0 019.71 9.71 5.25 5.25 0 01-7.09 7.09zm-1.257-3.244h-.04c2.872 0 4.303-1.386 4.303-3.243 0-1.198-.551-2.471-2.726-2.958l-1.983-.44c-.755-.172-1.622-.4-1.622-1.115s.62-1.213 1.724-1.213c2.23 0 2.027 1.528 3.131 1.528.576 0 1.093-.342 1.093-.93 0-1.37-2.197-2.4-4.056-2.4-2.021 0-4.173.859-4.173 3.144 0 1.098.394 2.27 2.56 2.813l2.689.671c.816.202 1.018.659 1.018 1.072 0 .687-.684 1.358-1.918 1.358-2.417 0-2.078-1.857-3.374-1.857-.58 0-1.003.398-1.003.971 0 1.114 1.352 2.598 4.377 2.598z"/></svg><svg viewBox="0 0 24 24" id="telegram-fill" xmlns="http://www.w3.org/2000/svg"><path d="M12.001 22c-5.523 0-10-4.477-10-10s4.477-10 10-10 10 4.477 10 10-4.477 10-10 10zm-3.11-8.83l.013-.007.87 2.87c.112.311.266.367.453.341.188-.025.287-.126.41-.244l1.188-1.148 2.55 1.888c.466.257.801.124.917-.432l1.658-7.822c.183-.728-.139-1.02-.703-.788l-9.733 3.76c-.664.266-.66.638-.12.803l2.497.78z"/></svg></svg>